<svg xmlns="http://www.w3.org/2000/svg" viewBox="0 0 512 512">
<defs>
<linearGradient id="cg" x1="0%" y1="0%" x2="100%" y2="100%">
<stop offset="0%" stop-color="#a855f7"/>
<stop offset="100%" stop-color="#7c3aed"/>
</linearGradient>
<linearGradient id="cg2" x1="0%" y1="0%" x2="100%" y2="100%">
<stop offset="0%" stop-color="#c084fc"/>
<stop offset="100%" stop-color="#a855f7"/>
</linearGradient>
</defs>
<!-- Background circle -->
<circle cx="256" cy="256" r="240" fill="url(#cg)" opacity="0.05"/>
<circle cx="256" cy="256" r="220" fill="none" stroke="url(#cg)" stroke-width="2" opacity="0.3"/>
<!-- Serpent body -->
<path d="M140 400 Q140 200 256 160 Q372 120 380 260 Q388 400 300 380 Q240 368 240 300 Q240 260 280 240" fill="none" stroke="url(#cg2)" stroke-width="8" stroke-linecap="round" stroke-linejoin="round"/>
<!-- Serpent head -->
<ellipse cx="280" cy="220" rx="30" ry="22" fill="url(#cg2)" transform="rotate(-20 280 220)"/>
<!-- Eyes -->
<ellipse cx="288" cy="214" rx="6" ry="8" fill="#fff" transform="rotate(-20 288 214)"/>
<circle cx="290" cy="214" r="3" fill="#7c3aed"/>
<!-- Crown -->
<path d="M265 196 L256 178 L270 186 L280 170 L290 186 L304 178 L295 196 Z" fill="#fbbf24" stroke="#d97706" stroke-width="1.5"/>
<!-- Text -->
<text x="256" y="460" font-family="Georgia,serif" font-size="40" font-weight="bold" fill="url(#cg)" text-anchor="middle" letter-spacing="6">DOTING SNAKE LORD</text>
</svg>
